<svg version="1.1" xmlns="http://www.w3.org/2000/svg" width="790" height="150">
<path d="M0 0 C260.7 0 521.4 0 790 0 C790 49.5 790 99 790 150 C529.3 150 268.6 150 0 150 C0 100.5 0 51 0 0 Z " fill="#000000" transform="translate(0,0)"/>
<path d="M0 0 C3.96 0 7.92 0 12 0 C12.4218457 0.82387207 12.84369141 1.64774414 13.27832031 2.49658203 C24.31012473 24.05153353 24.31012473 24.05153353 35.84082031 45.34228516 C40.15567529 53.12472032 44.00372771 61.00745542 48 69 C48.33 46.23 48.66 23.46 49 0 C52.96 0 56.92 0 61 0 C61 32.01 61 64.02 61 97 C57.04 97 53.08 97 49 97 C48.27296875 95.59492187 47.5459375 94.18984375 46.796875 92.7421875 C41.56154774 82.65132499 36.27648239 72.59420053 30.8125 62.625 C27.1798966 55.99414158 23.55509464 49.36032352 20 42.6875 C19.65042236 42.03668457 19.30084473 41.38586914 18.94067383 40.71533203 C16.37498658 35.87867752 14.23877537 31.03724458 12 26 C11.67 49.43 11.34 72.86 11 97 C7.37 97 3.74 97 0 97 C0 64.99 0 32.98 0 0 Z " fill="#07D01A" transform="translate(26,23)"/>
<path d="M0 0 C7.89430097 5.19136097 10.64046249 11.61271248 13.15625 20.41796875 C13.65125 27.84296875 13.65125 27.84296875 14.15625 35.41796875 C-1.68375 35.41796875 -17.52375 35.41796875 -33.84375 35.41796875 C-31.73444123 45.96451258 -30.31812467 51.78227192 -21.57421875 58.04296875 C-15.73056952 60.9856934 -7.87522018 60.07087255 -1.59375 58.66796875 C2.16930718 57.41361636 5.69736563 55.92970101 9.2734375 54.22265625 C11.15625 53.41796875 11.15625 53.41796875 13.15625 53.41796875 C13.15625 57.04796875 13.15625 60.67796875 13.15625 64.41796875 C0.20791576 69.35066751 -12.31550697 73.78351993 -25.9609375 68.3203125 C-35.54259233 63.72827461 -41.27299258 56.23306577 -44.84375 46.41796875 C-45.25625 45.34546875 -45.66875 44.27296875 -46.09375 43.16796875 C-48.50489865 31.11222552 -46.48794707 20.97426646 -40.03125 10.60546875 C-30.61638441 -2.5097669 -14.66778445 -8.28544153 0 0 Z " fill="#07CE1A" transform="translate(680.84375,51.58203125)"/>
<path d="M0 0 C4.29 0 8.58 0 13 0 C13.00364563 0.94689697 13.00729126 1.89379395 13.01104736 2.86938477 C13.04806773 11.8145116 13.10591704 20.75929642 13.18390274 29.7041626 C13.22332907 34.30230082 13.25554122 38.90024892 13.27099609 43.49853516 C13.28619472 47.94026468 13.32069673 52.38147137 13.36830902 56.82296753 C13.38308987 58.51328982 13.39103912 60.20368678 13.39188385 61.89407349 C13.19206069 74.07520487 13.19206069 74.07520487 18 85 C23.10898851 89.25749043 27.61741249 89.62057806 34.1875 89.390625 C38.94750027 88.72951385 41.51248726 86.54063819 44.75 83.1875 C47.77443566 77.89473759 48.25742362 72.40119706 48.31884766 66.41235352 C48.33391609 65.3281739 48.33391609 65.3281739 48.34928894 64.22209167 C48.3799237 61.85770386 48.39710053 59.49342823 48.4140625 57.12890625 C48.43279006 55.47980294 48.45236465 53.83070905 48.4727478 52.18162537 C48.52390736 47.85972671 48.56361925 43.53779704 48.60089111 39.21575928 C48.64103262 34.79805939 48.6920785 30.38048671 48.7421875 25.96289062 C48.83875506 17.3086809 48.92322067 8.65440781 49 0 C52.96 0 56.92 0 61 0 C61.04652023 9.08452591 61.08196864 18.16901026 61.10362434 27.25362968 C61.11402257 31.47284047 61.12810865 35.69196922 61.15087891 39.91113281 C61.17274953 43.98953167 61.18459835 48.06785206 61.18975449 52.14630508 C61.19342489 53.69547891 61.20059163 55.24464886 61.21146011 56.79378891 C61.30789113 71.1197619 60.64025283 83.01246295 50.25 93.875 C41.18463129 99.80235646 32.81346772 101.27018904 22 100 C13.65435641 97.9087706 7.62778097 94.29702594 3 87 C-1.11138186 78.26369185 -0.38402796 68.58931109 -0.29296875 59.1796875 C-0.28736355 57.46762466 -0.28309782 55.75555695 -0.28010559 54.04348755 C-0.26872949 49.56854635 -0.23932586 45.09390391 -0.20599365 40.61907959 C-0.17513553 36.04036499 -0.16156683 31.46160144 -0.14648438 26.8828125 C-0.11444819 17.92174477 -0.06334092 8.96089737 0 0 Z " fill="#07CD1A" transform="translate(102,23)"/>
<path d="M0 0 C5.13651059 3.22812126 8.08816598 7.22386493 9.6966095 13.07099915 C10.59433295 17.93399932 10.35301252 22.89696368 10.30859375 27.82421875 C10.30576385 29.01290054 10.30293396 30.20158234 10.30001831 31.42628479 C10.28886331 35.20616918 10.26376691 38.98581276 10.23828125 42.765625 C10.22824542 45.33528303 10.21912062 47.90494478 10.2109375 50.47460938 C10.18893922 56.75920674 10.15444126 63.0436251 10.11328125 69.328125 C6.15328125 69.328125 2.19328125 69.328125 -1.88671875 69.328125 C-1.89606445 67.71848877 -1.90541016 66.10885254 -1.91503906 64.45043945 C-1.95491749 58.47717639 -2.02067156 52.50442951 -2.09423828 46.53149414 C-2.12246012 43.94660067 -2.14366854 41.3616207 -2.15771484 38.77661133 C-2.17912652 35.06025877 -2.22577111 31.34494753 -2.27734375 27.62890625 C-2.27857239 26.47352859 -2.27980103 25.31815094 -2.28106689 24.12776184 C-2.34981692 17.81675931 -2.34981692 17.81675931 -4.79980469 12.12182617 C-7.41050748 9.87792895 -8.49670863 9.37588134 -11.94921875 8.953125 C-20.50044444 9.76752745 -25.74879398 14.72248453 -31.16015625 21.046875 C-31.72992187 21.7996875 -32.2996875 22.5525 -32.88671875 23.328125 C-33.4067749 24.00512451 -33.92683105 24.68212402 -34.46264648 25.37963867 C-36.46555386 29.52658062 -36.36504919 33.23395314 -36.3984375 37.78515625 C-36.4163887 38.68811935 -36.4343399 39.59108246 -36.45283508 40.52140808 C-36.50684896 43.39443344 -36.54080512 46.26729351 -36.57421875 49.140625 C-36.60739971 51.09312191 -36.64189009 53.04559704 -36.67773438 54.99804688 C-36.76257035 59.77462016 -36.82942411 64.55114518 -36.88671875 69.328125 C-40.51671875 69.328125 -44.14671875 69.328125 -47.88671875 69.328125 C-47.88671875 46.228125 -47.88671875 23.128125 -47.88671875 -0.671875 C-44.25671875 -0.671875 -40.62671875 -0.671875 -36.88671875 -0.671875 C-36.55671875 3.948125 -36.22671875 8.568125 -35.88671875 13.328125 C-34.83484375 12.090625 -33.78296875 10.853125 -32.69921875 9.578125 C-23.697606 -0.62729624 -12.98682931 -6.37005099 0 0 Z " fill="#07D01A" transform="translate(759.88671875,50.671875)"/>
<path d="M0 0 C0 3.63 0 7.26 0 11 C-0.83660156 10.7834375 -1.67320312 10.566875 -2.53515625 10.34375 C-13.06415534 7.82518543 -25.23997432 5.04522243 -35 11 C-36.14352916 13.28705831 -36.10334439 14.59264762 -36.0625 17.125 C-36.041875 18.40375 -36.02125 19.6825 -36 21 C-33.27266036 22.09915383 -30.5395306 23.17611132 -27.79296875 24.2265625 C-20.84133087 26.92286408 -14.02118434 29.80450472 -7.3125 33.0625 C-6.64178467 33.37848145 -5.97106934 33.69446289 -5.2800293 34.02001953 C-0.53029624 36.38066893 2.90595807 38.9343424 4.73046875 44.046875 C5.7249527 51.25328046 5.30686762 56.93062964 1 63 C-4.81042474 69.27207493 -11.48661892 70.71261352 -19.7421875 71.23828125 C-30.24264861 71.51377394 -41.42205574 70.78897213 -51 66 C-51 62.04 -51 58.08 -51 54 C-46.98001007 55.30649673 -43.04499426 56.74024189 -39.125 58.31640625 C-33.8628815 60.00918334 -28.4888511 60.23511958 -23 60.3125 C-22.31421875 60.34150391 -21.6284375 60.37050781 -20.921875 60.40039062 C-15.7868617 60.46408831 -12.93871319 59.23622928 -9 56 C-7.56264754 53.12529507 -7.61827351 51.18105412 -8 48 C-12.93521217 42.88815918 -20.05958601 41.01367521 -26.54492188 38.53125 C-34.15956292 35.53772788 -41.70754235 32.2140658 -47.625 26.4375 C-49.97804569 20.55488578 -50.46083857 13.73612696 -48.1171875 7.7421875 C-37.85931045 -7.9503264 -15.38466049 -3.66613186 0 0 Z " fill="#07CE1A" transform="translate(460,51)"/>
<path d="M0 0 C3.96 0 7.92 0 12 0 C12 28.38 12 56.76 12 86 C25.2 86 38.4 86 52 86 C52 89.63 52 93.26 52 97 C34.84 97 17.68 97 0 97 C0 64.99 0 32.98 0 0 Z " fill="#07D21A" transform="translate(260,23)"/>
<path d="M0 0 C3.96 0 7.92 0 12 0 C12 28.38 12 56.76 12 86 C25.2 86 38.4 86 52 86 C52 89.63 52 93.26 52 97 C34.84 97 17.68 97 0 97 C0 64.99 0 32.98 0 0 Z " fill="#07D21A" transform="translate(184,23)"/>
<path d="M0 0 C1.00804687 -0.01417969 2.01609375 -0.02835938 3.0546875 -0.04296875 C6.125 0.1875 6.125 0.1875 12.125 2.1875 C12.125 10.4375 12.125 18.6875 12.125 27.1875 C8.495 27.1875 4.865 27.1875 1.125 27.1875 C1.125 21.9075 1.125 16.6275 1.125 11.1875 C-10.36852904 12.49358285 -16.20285587 15.5992934 -23.55078125 24.37890625 C-23.98777344 24.97574219 -24.42476562 25.57257813 -24.875 26.1875 C-25.38675781 26.85475098 -25.89851562 27.52200195 -26.42578125 28.20947266 C-28.45211162 32.37341772 -28.35315223 36.06903627 -28.38671875 40.64453125 C-28.40466995 41.54749435 -28.42262115 42.45045746 -28.44111633 43.38078308 C-28.49513021 46.25380844 -28.52908637 49.12666851 -28.5625 52 C-28.59568096 53.95249691 -28.63017134 55.90497204 -28.66601562 57.85742188 C-28.7508516 62.63399516 -28.81770536 67.41052018 -28.875 72.1875 C-32.505 72.1875 -36.135 72.1875 -39.875 72.1875 C-39.875 49.0875 -39.875 25.9875 -39.875 2.1875 C-36.245 2.1875 -32.615 2.1875 -28.875 2.1875 C-28.545 6.8075 -28.215 11.4275 -27.875 16.1875 C-26.823125 14.95 -25.77125 13.7125 -24.6875 12.4375 C-17.7286509 4.51447301 -10.65487027 0.06777907 0 0 Z " fill="#07D11A" transform="translate(605.875,47.8125)"/>
<path d="M0 0 C10.23 0 20.46 0 31 0 C31 19.8 31 39.6 31 60 C37.27 60 43.54 60 50 60 C50 63.3 50 66.6 50 70 C39.77 70 29.54 70 19 70 C19 50.2 19 30.4 19 10 C12.73 10 6.46 10 0 10 C0 6.7 0 3.4 0 0 Z " fill="#07CD1A" transform="translate(484,50)"/>
<path d="M0 0 C22.44 0 44.88 0 68 0 C68 3.3 68 6.6 68 10 C45.56 10 23.12 10 0 10 C0 6.7 0 3.4 0 0 Z " fill="#07CC1A" transform="translate(326,120)"/>
<path d="M0 0 C3.69723607 3.08103006 6.700779 6.22733701 8.25 10.875 C8.25 13.515 8.25 16.155 8.25 18.875 C-2.97 18.875 -14.19 18.875 -25.75 18.875 C-24.7037438 11.55120661 -23.44330256 7.20621407 -17.95703125 2.2578125 C-12.24924747 -1.77523233 -6.52355798 -2.66872826 0 0 Z " fill="#000300" transform="translate(673.75,59.125)"/>
<path d="M0 0 C3.42641601 1.16643949 4.94029949 1.96425523 6.9375 5 C7.01385097 9.27565406 6.58135417 11.26416666 3.75 14.5 C0.9375 16 0.9375 16 -2.1875 15.9375 C-6.61440311 14.49394464 -6.61440311 14.49394464 -8.0625 12 C-8.45552445 8.90493248 -8.69158496 6.95551234 -8.0625 4 C-5.43455412 0.83100644 -4.13044829 0 0 0 Z " fill="#07CC1A" transform="translate(510.0625,17)"/>
</svg>
